# xmcd CD database file
#
# Track frame offsets:
#	225
#	17362
#	36252
#	62197
#	70735
#	93397
#	108152
#	127043
#	131935
#	150615
#
# Disc length: 2231 seconds
#
# Revision: 0
# Processed by: cddbd v1.5.2PL0 Copyright (c) Steve Scherf et al.
# Submitted via: CDex 1.70beta2
#
DISCID=8508b40a
DTITLE=Wintley Phipps - Live
DYEAR=2000
DGENRE=Salsa
TTITLE0=Fill The World With Love
TTITLE1=I Give You My Life 
TTITLE2=Remember Me
TTITLE3=enter
TTITLE4=I Just Want toPraise the Lord
TTITLE5=Tell Me Again
TTITLE6=The Sun Will Shine Again
TTITLE7=enter
TTITLE8=Coming Again
TTITLE9=The Potter
EXTD=YEAR: 2000
EXTT0=
EXTT1=
EXTT2=
EXTT3=
EXTT4=
EXTT5=
EXTT6=
EXTT7=
EXTT8=
EXTT9=
PLAYORDER=
